<svg width="40" height="40" viewBox="0 0 40 40" fill="none" xmlns="http://www.w3.org/2000/svg">
<circle cx="20" cy="20" r="20" fill="#FF6699"/>
<path fill-rule="evenodd" clip-rule="evenodd" d="M25.9615 8.91675H24.0827C23.5995 8.91675 23.2077 9.3085 23.2077 9.79175C23.2077 11.5637 21.7713 13.0001 19.9994 13.0001C18.2289 13.0001 16.7933 11.566 16.791 9.79599L16.7911 9.79175C16.7911 9.3085 16.3993 8.91675 15.916 8.91675H14.0373C12.904 8.91675 11.8549 9.51457 11.2772 10.4895L7.94251 16.1167C7.32862 17.1526 7.74004 18.4921 8.82961 19.0049L12.2983 20.6372L11.9463 26.9726C11.8581 28.5599 12.9623 30.0137 14.6112 30.2004C15.9342 30.3502 17.8348 30.5001 20.1452 30.5001C22.4222 30.5001 24.3012 30.3545 25.6214 30.2069C27.306 30.0186 28.4167 28.5127 28.2819 26.8954L27.7581 20.6101L31.1692 19.0049C32.2587 18.4921 32.6702 17.1526 32.0563 16.1167L28.7216 10.4895C28.1439 9.51457 27.0947 8.91675 25.9615 8.91675ZM12.7826 11.3816C13.0452 10.9385 13.5221 10.6667 14.0372 10.6667H15.118C15.5312 12.9878 17.5595 14.7501 19.9993 14.7501C22.4392 14.7501 24.4674 12.9878 24.8807 10.6667H25.9615C26.4766 10.6667 26.9535 10.9385 27.2161 11.3816L30.5507 17.0088C30.6384 17.1568 30.5796 17.3482 30.424 17.4214L27.603 18.749L27.5797 18.4691C27.5395 17.9875 27.1166 17.6296 26.635 17.6698C26.1534 17.7099 25.7956 18.1328 25.8357 18.6144L26.5379 27.0407C26.6001 27.7867 26.0992 28.3926 25.427 28.4678C24.1619 28.6092 22.3484 28.7501 20.1452 28.7501C17.9096 28.7501 16.0754 28.605 14.8081 28.4615C14.1494 28.387 13.653 27.8012 13.6936 27.0697L14.1647 18.5903C14.1915 18.1078 13.8221 17.6949 13.3396 17.6681C12.8571 17.6413 12.4442 18.0107 12.4174 18.4932L12.403 18.7524L9.57472 17.4214C9.41906 17.3482 9.36029 17.1568 9.44799 17.0088L12.7826 11.3816Z" fill="white"/>
</svg>
